STARTFONT 2.1
FONT -Adobe-ITC Lubalin Graph-Book-R-Normal--12-120-75-75-P-70-ISO8859-1
SIZE 12 75 75
FONTBOUNDINGBOX 15 15 -1 -3

STARTPROPERTIES 25
FONTNAME_REGISTRY ""
FAMILY_NAME "ITC Lubalin Graph"
FOUNDRY "Adobe"
WEIGHT_NAME "Book"
SLANT "R"
SETWIDTH_NAME "Normal"
ADD_STYLE_NAME ""
PIXEL_SIZE 12
POINT_SIZE 120
RESOLUTION_X 75
RESOLUTION_Y 75
SPACING "P"
AVERAGE_WIDTH 70
CHARSET_REGISTRY "ISO8859"
CHARSET_ENCODING "1"
CHARSET_COLLECTIONS "ASCII ISO8859-1 ADOBE-STANDARD"
FULL_NAME "ITC Lubalin Graph Book"
COPYRIGHT "Copyright (c) 1984 Adobe Systems, Inc., Portions Copyright 1988 Digital Equipment Corp."
CAP_HEIGHT 9
X_HEIGHT 7
WEIGHT 10
QUAD_WIDTH 8
DEFAULT_CHAR 32
FONT_DESCENT 3
FONT_ASCENT 11
ENDPROPERTIES

CHARS 190

STARTCHAR space
ENCODING 32
SWIDTH 300 0
DWIDTH 4 0
BBX 1 1 0 0
BITMAP
00
ENDCHAR

STARTCHAR exclam
ENCODING 33
SWIDTH 140 0
DWIDTH 4 0
BBX 1 9 1 0
BITMAP
80
80
80
80
80
80
80
00
80
ENDCHAR

STARTCHAR quotedbl
ENCODING 34
SWIDTH 280 0
DWIDTH 6 0
BBX 3 3 1 6
BITMAP
A0
A0
A0
ENDCHAR

STARTCHAR numbersign
ENCODING 35
SWIDTH 580 0
DWIDTH 8 0
BBX 7 8 0 1
BITMAP
14
14
7E
28
28
FC
50
50
ENDCHAR

STARTCHAR dollar
ENCODING 36
SWIDTH 580 0
DWIDTH 7 0
BBX 5 11 1 -1
BITMAP
20
68
B8
A8
A0
70
28
A8
E8
B0
20
ENDCHAR

STARTCHAR percent
ENCODING 37
SWIDTH 800 0
DWIDTH 10 0
BBX 9 9 0 0
BITMAP
6200
9200
9400
6400
0800
1300
1480
2480
2300
ENDCHAR

STARTCHAR ampersand
ENCODING 38
SWIDTH 720 0
DWIDTH 9 0
BBX 8 9 0 0
BITMAP
30
48
48
33
52
8C
84
8A
71
ENDCHAR

STARTCHAR quoteright
ENCODING 39
SWIDTH 200 0
DWIDTH 3 0
BBX 2 2 0 7
BITMAP
40
80
ENDCHAR

STARTCHAR parenleft
ENCODING 40
SWIDTH 340 0
DWIDTH 5 0
BBX 4 11 0 -2
BITMAP
10
20
40
40
80
80
80
40
40
20
10
ENDCHAR

STARTCHAR parenright
ENCODING 41
SWIDTH 340 0
DWIDTH 5 0
BBX 4 11 0 -2
BITMAP
80
40
20
20
10
10
10
20
20
40
80
ENDCHAR

STARTCHAR asterisk
ENCODING 42
SWIDTH 340 0
DWIDTH 5 0
BBX 5 3 0 6
BITMAP
A8
70
A8
ENDCHAR

STARTCHAR plus
ENCODING 43
SWIDTH 660 0
DWIDTH 8 0
BBX 7 7 0 1
BITMAP
10
10
10
FE
10
10
10
ENDCHAR

STARTCHAR comma
ENCODING 44
SWIDTH 300 0
DWIDTH 4 0
BBX 2 2 0 -1
BITMAP
40
80
ENDCHAR

STARTCHAR minus
ENCODING 45
SWIDTH 660 0
DWIDTH 7 0
BBX 6 1 0 4
BITMAP
FC
ENDCHAR

STARTCHAR period
ENCODING 46
SWIDTH 300 0
DWIDTH 4 0
BBX 1 1 1 0
BITMAP
80
ENDCHAR

STARTCHAR slash
ENCODING 47
SWIDTH 580 0
DWIDTH 6 0
BBX 5 10 0 -1
BITMAP
08
08
10
10
20
20
40
40
80
80
ENDCHAR

STARTCHAR zero
ENCODING 48
SWIDTH 580 0
DWIDTH 7 0
BBX 6 9 0 0
BITMAP
78
84
84
84
84
84
84
84
78
ENDCHAR

STARTCHAR one
ENCODING 49
SWIDTH 580 0
DWIDTH 7 0
BBX 4 9 1 0
BITMAP
E0
20
20
20
20
20
20
20
70
ENDCHAR

STARTCHAR two
ENCODING 50
SWIDTH 580 0
DWIDTH 7 0
BBX 6 9 0 0
BITMAP
38
44
44
04
08
10
20
44
FC
ENDCHAR

STARTCHAR three
ENCODING 51
SWIDTH 580 0
DWIDTH 7 0
BBX 6 9 0 0
BITMAP
38
44
04
04
18
04
84
84
78
ENDCHAR

STARTCHAR four
ENCODING 52
SWIDTH 580 0
DWIDTH 7 0
BBX 6 9 0 0
BITMAP
18
28
28
48
48
88
FC
08
1C
ENDCHAR

STARTCHAR five
ENCODING 53
SWIDTH 580 0
DWIDTH 7 0
BBX 6 9 0 0
BITMAP
3C
20
40
78
44
04
84
84
78
ENDCHAR

STARTCHAR six
ENCODING 54
SWIDTH 580 0
DWIDTH 7 0
BBX 6 9 0 0
BITMAP
10
20
40
B8
C4
84
84
84
78
ENDCHAR

STARTCHAR seven
ENCODING 55
SWIDTH 580 0
DWIDTH 7 0
BBX 6 9 0 0
BITMAP
FC
84
08
10
10
20
20
40
40
ENDCHAR

STARTCHAR eight
ENCODING 56
SWIDTH 580 0
DWIDTH 7 0
BBX 6 9 0 0
BITMAP
78
84
84
48
78
84
84
84
78
ENDCHAR

STARTCHAR nine
ENCODING 57
SWIDTH 580 0
DWIDTH 7 0
BBX 6 9 0 0
BITMAP
78
84
84
84
88
78
10
20
40
ENDCHAR

STARTCHAR colon
ENCODING 58
SWIDTH 300 0
DWIDTH 4 0
BBX 1 6 1 0
BITMAP
80
00
00
00
00
80
ENDCHAR

STARTCHAR semicolon
ENCODING 59
SWIDTH 300 0
DWIDTH 4 0
BBX 2 7 0 -1
BITMAP
40
00
00
00
00
40
80
ENDCHAR

STARTCHAR less
ENCODING 60
SWIDTH 660 0
DWIDTH 8 0
BBX 7 7 0 1
BITMAP
02
0C
30
C0
30
0C
02
ENDCHAR

STARTCHAR equal
ENCODING 61
SWIDTH 660 0
DWIDTH 7 0
BBX 6 3 0 3
BITMAP
FC
00
FC
ENDCHAR

STARTCHAR greater
ENCODING 62
SWIDTH 660 0
DWIDTH 8 0
BBX 7 7 0 1
BITMAP
80
60
18
06
18
60
80
ENDCHAR

STARTCHAR question
ENCODING 63
SWIDTH 520 0
DWIDTH 6 0
BBX 5 9 0 0
BITMAP
70
88
88
08
10
20
20
00
20
ENDCHAR

STARTCHAR at
ENCODING 64
SWIDTH 900 0
DWIDTH 10 0
BBX 9 9 0 0
BITMAP
3E00
4100
9A80
A480
A480
A500
9A00
4080
3F00
ENDCHAR

STARTCHAR A
ENCODING 65
SWIDTH 820 0
DWIDTH 10 0
BBX 9 9 0 0
BITMAP
1800
0800
1400
1400
2200
3E00
4100
4100
E380
ENDCHAR

STARTCHAR B
ENCODING 66
SWIDTH 580 0
DWIDTH 7 0
BBX 6 9 0 0
BITMAP
F8
44
44
44
78
44
44
44
F8
ENDCHAR

STARTCHAR C
ENCODING 67
SWIDTH 740 0
DWIDTH 8 0
BBX 7 9 0 0
BITMAP
3A
46
82
80
80
80
82
44
38
ENDCHAR

STARTCHAR D
ENCODING 68
SWIDTH 720 0
DWIDTH 9 0
BBX 8 9 0 0
BITMAP
FC
42
41
41
41
41
41
42
FC
ENDCHAR

STARTCHAR E
ENCODING 69
SWIDTH 560 0
DWIDTH 7 0
BBX 6 9 0 0
BITMAP
FC
44
40
40
78
40
40
44
FC
ENDCHAR

STARTCHAR F
ENCODING 70
SWIDTH 560 0
DWIDTH 7 0
BBX 6 9 0 0
BITMAP
FC
44
40
40
78
40
40
40
E0
ENDCHAR

STARTCHAR G
ENCODING 71
SWIDTH 780 0
DWIDTH 8 0
BBX 7 9 0 0
BITMAP
3A
46
82
80
80
9E
82
46
3A
ENDCHAR

STARTCHAR H
ENCODING 72
SWIDTH 720 0
DWIDTH 9 0
BBX 8 9 0 0
BITMAP
E7
42
42
42
7E
42
42
42
E7
ENDCHAR

STARTCHAR I
ENCODING 73
SWIDTH 300 0
DWIDTH 4 0
BBX 3 9 0 0
BITMAP
E0
40
40
40
40
40
40
40
E0
ENDCHAR

STARTCHAR J
ENCODING 74
SWIDTH 520 0
DWIDTH 6 0
BBX 6 9 0 0
BITMAP
1C
08
08
08
08
08
88
88
70
ENDCHAR

STARTCHAR K
ENCODING 75
SWIDTH 700 0
DWIDTH 8 0
BBX 8 9 0 0
BITMAP
E7
44
48
50
60
50
48
44
E7
ENDCHAR

STARTCHAR L
ENCODING 76
SWIDTH 520 0
DWIDTH 7 0
BBX 6 9 0 0
BITMAP
E0
40
40
40
40
40
40
44
FC
ENDCHAR

STARTCHAR M
ENCODING 77
SWIDTH 980 0
DWIDTH 12 0
BBX 11 9 0 0
BITMAP
E0E0
60C0
5140
5140
5140
4A40
4A40
4440
E4E0
ENDCHAR

STARTCHAR N
ENCODING 78
SWIDTH 800 0
DWIDTH 10 0
BBX 9 9 0 0
BITMAP
E380
6100
5100
5100
4900
4900
4500
4500
E300
ENDCHAR

STARTCHAR O
ENCODING 79
SWIDTH 800 0
DWIDTH 9 0
BBX 8 9 0 0
BITMAP
3C
42
81
81
81
81
81
42
3C
ENDCHAR

STARTCHAR P
ENCODING 80
SWIDTH 580 0
DWIDTH 7 0
BBX 7 9 0 0
BITMAP
FC
42
42
42
44
78
40
40
E0
ENDCHAR

STARTCHAR Q
ENCODING 81
SWIDTH 860 0
DWIDTH 9 0
BBX 9 9 0 0
BITMAP
3C00
4200
8100
8100
8100
B900
C700
4280
3D80
ENDCHAR

STARTCHAR R
ENCODING 82
SWIDTH 640 0
DWIDTH 8 0
BBX 8 9 0 0
BITMAP
FC
42
42
42
44
58
48
44
E3
ENDCHAR

STARTCHAR S
ENCODING 83
SWIDTH 500 0
DWIDTH 7 0
BBX 6 9 0 0
BITMAP
74
8C
84
80
78
04
84
C4
B8
ENDCHAR

STARTCHAR T
ENCODING 84
SWIDTH 540 0
DWIDTH 8 0
BBX 7 9 0 0
BITMAP
FE
92
10
10
10
10
10
10
38
ENDCHAR

STARTCHAR U
ENCODING 85
SWIDTH 700 0
DWIDTH 9 0
BBX 8 9 0 0
BITMAP
E7
42
42
42
42
42
42
42
3C
ENDCHAR

STARTCHAR V
ENCODING 86
SWIDTH 780 0
DWIDTH 8 0
BBX 9 9 -1 0
BITMAP
E380
4100
2200
2200
2200
1400
1400
0800
0800
ENDCHAR

STARTCHAR W
ENCODING 87
SWIDTH 1040 0
DWIDTH 12 0
BBX 13 9 -1 0
BITMAP
E238
4210
4510
2520
28A0
28A0
28A0
1040
1040
ENDCHAR

STARTCHAR X
ENCODING 88
SWIDTH 740 0
DWIDTH 8 0
BBX 9 9 -1 0
BITMAP
E380
4100
2200
1400
0800
1400
2200
4100
E380
ENDCHAR

STARTCHAR Y
ENCODING 89
SWIDTH 680 0
DWIDTH 8 0
BBX 9 9 -1 0
BITMAP
E380
4100
2200
2200
1400
0800
0800
0800
1C00
ENDCHAR

STARTCHAR Z
ENCODING 90
SWIDTH 520 0
DWIDTH 6 0
BBX 6 9 0 0
BITMAP
FC
88
10
10
20
40
40
84
FC
ENDCHAR

STARTCHAR bracketleft
ENCODING 91
SWIDTH 300 0
DWIDTH 4 0
BBX 3 11 0 -2
BITMAP
E0
80
80
80
80
80
80
80
80
80
E0
ENDCHAR

STARTCHAR backslash
ENCODING 92
SWIDTH 580 0
DWIDTH 7 0
BBX 5 9 1 0
BITMAP
80
80
40
40
20
20
10
10
08
ENDCHAR

STARTCHAR bracketright
ENCODING 93
SWIDTH 300 0
DWIDTH 4 0
BBX 3 11 0 -2
BITMAP
E0
20
20
20
20
20
20
20
20
20
E0
ENDCHAR

STARTCHAR asciicircum
ENCODING 94
SWIDTH 660 0
DWIDTH 6 0
BBX 5 6 0 3
BITMAP
20
20
50
50
88
88
ENDCHAR

STARTCHAR underscore
ENCODING 95
SWIDTH 500 0
DWIDTH 6 0
BBX 6 1 0 -2
BITMAP
FC
ENDCHAR

STARTCHAR quoteleft
ENCODING 96
SWIDTH 200 0
DWIDTH 3 0
BBX 2 2 0 7
BITMAP
80
40
ENDCHAR

STARTCHAR a
ENCODING 97
SWIDTH 660 0
DWIDTH 8 0
BBX 8 7 0 0
BITMAP
3B
46
82
82
82
46
3B
ENDCHAR

STARTCHAR b
ENCODING 98
SWIDTH 660 0
DWIDTH 8 0
BBX 8 9 0 0
BITMAP
C0
40
5C
62
41
41
41
62
DC
ENDCHAR

STARTCHAR c
ENCODING 99
SWIDTH 560 0
DWIDTH 7 0
BBX 6 7 0 0
BITMAP
34
4C
84
80
80
44
38
ENDCHAR

STARTCHAR d
ENCODING 100
SWIDTH 660 0
DWIDTH 8 0
BBX 8 9 0 0
BITMAP
06
02
3A
46
82
82
82
46
3B
ENDCHAR

STARTCHAR e
ENCODING 101
SWIDTH 580 0
DWIDTH 7 0
BBX 7 7 0 0
BITMAP
38
44
82
FE
80
44
38
ENDCHAR

STARTCHAR f
ENCODING 102
SWIDTH 300 0
DWIDTH 4 0
BBX 4 9 0 0
BITMAP
30
40
E0
40
40
40
40
40
E0
ENDCHAR

STARTCHAR g
ENCODING 103
SWIDTH 660 0
DWIDTH 8 0
BBX 8 10 0 -3
BITMAP
3B
46
82
82
82
46
3A
02
84
78
ENDCHAR

STARTCHAR h
ENCODING 104
SWIDTH 640 0
DWIDTH 8 0
BBX 8 9 0 0
BITMAP
C0
40
5C
62
42
42
42
42
E7
ENDCHAR

STARTCHAR i
ENCODING 105
SWIDTH 260 0
DWIDTH 3 0
BBX 3 9 0 0
BITMAP
40
00
C0
40
40
40
40
40
E0
ENDCHAR

STARTCHAR j
ENCODING 106
SWIDTH 240 0
DWIDTH 3 0
BBX 2 12 0 -3
BITMAP
40
00
C0
40
40
40
40
40
40
40
40
80
ENDCHAR

STARTCHAR k
ENCODING 107
SWIDTH 580 0
DWIDTH 7 0
BBX 7 9 0 0
BITMAP
C0
40
4E
48
50
70
48
44
EE
ENDCHAR

STARTCHAR l
ENCODING 108
SWIDTH 280 0
DWIDTH 3 0
BBX 3 9 0 0
BITMAP
C0
40
40
40
40
40
40
40
E0
ENDCHAR

STARTCHAR m
ENCODING 109
SWIDTH 980 0
DWIDTH 11 0
BBX 11 7 0 0
BITMAP
D980
6640
4440
4440
4440
4440
EEE0
ENDCHAR

STARTCHAR n
ENCODING 110
SWIDTH 660 0
DWIDTH 8 0
BBX 8 7 0 0
BITMAP
DC
62
42
42
42
42
E7
ENDCHAR

STARTCHAR o
ENCODING 111
SWIDTH 580 0
DWIDTH 7 0
BBX 7 7 0 0
BITMAP
38
44
82
82
82
44
38
ENDCHAR

STARTCHAR p
ENCODING 112
SWIDTH 660 0
DWIDTH 8 0
BBX 8 10 0 -3
BITMAP
DC
62
41
41
41
62
5C
40
40
E0
ENDCHAR

STARTCHAR q
ENCODING 113
SWIDTH 660 0
DWIDTH 8 0
BBX 8 10 0 -3
BITMAP
3B
46
82
82
82
46
3A
02
02
07
ENDCHAR

STARTCHAR r
ENCODING 114
SWIDTH 360 0
DWIDTH 5 0
BBX 4 7 0 0
BITMAP
D0
60
40
40
40
40
E0
ENDCHAR

STARTCHAR s
ENCODING 115
SWIDTH 420 0
DWIDTH 6 0
BBX 5 7 0 0
BITMAP
78
88
80
70
08
88
F0
ENDCHAR

STARTCHAR t
ENCODING 116
SWIDTH 320 0
DWIDTH 4 0
BBX 3 9 0 0
BITMAP
40
40
E0
40
40
40
40
40
60
ENDCHAR

STARTCHAR u
ENCODING 117
SWIDTH 640 0
DWIDTH 8 0
BBX 8 7 0 0
BITMAP
C6
42
42
42
42
46
3B
ENDCHAR

STARTCHAR v
ENCODING 118
SWIDTH 640 0
DWIDTH 8 0
BBX 8 7 0 0
BITMAP
E7
42
24
24
24
18
18
ENDCHAR

STARTCHAR w
ENCODING 119
SWIDTH 900 0
DWIDTH 11 0
BBX 11 7 0 0
BITMAP
E0E0
4440
2480
2A80
2A80
1100
1100
ENDCHAR

STARTCHAR x
ENCODING 120
SWIDTH 600 0
DWIDTH 7 0
BBX 7 7 0 0
BITMAP
EE
44
28
10
28
44
EE
ENDCHAR

STARTCHAR y
ENCODING 121
SWIDTH 640 0
DWIDTH 8 0
BBX 8 10 0 -3
BITMAP
E7
42
24
24
28
18
10
10
20
70
ENDCHAR

STARTCHAR z
ENCODING 122
SWIDTH 420 0
DWIDTH 5 0
BBX 5 7 0 0
BITMAP
F8
88
10
20
40
88
F8
ENDCHAR

STARTCHAR braceleft
ENCODING 123
SWIDTH 300 0
DWIDTH 4 0
BBX 3 11 0 -2
BITMAP
20
40
40
40
40
80
40
40
40
40
20
ENDCHAR

STARTCHAR bar
ENCODING 124
SWIDTH 660 0
DWIDTH 7 0
BBX 1 9 3 0
BITMAP
80
80
80
80
80
80
80
80
80
ENDCHAR

STARTCHAR braceright
ENCODING 125
SWIDTH 300 0
DWIDTH 4 0
BBX 3 11 0 -2
BITMAP
80
40
40
40
40
20
40
40
40
40
80
ENDCHAR

STARTCHAR asciitilde
ENCODING 126
SWIDTH 660 0
DWIDTH 8 0
BBX 7 2 0 3
BITMAP
72
9C
ENDCHAR

STARTCHAR exclamdown
ENCODING 161
SWIDTH 140 0
DWIDTH 4 0
BBX 1 9 1 -3
BITMAP
80
00
80
80
80
80
80
80
80
ENDCHAR

STARTCHAR cent
ENCODING 162
SWIDTH 580 0
DWIDTH 7 0
BBX 5 7 1 1
BITMAP
20
78
A8
A0
A8
70
20
ENDCHAR

STARTCHAR sterling
ENCODING 163
SWIDTH 640 0
DWIDTH 8 0
BBX 7 9 0 0
BITMAP
74
8C
84
40
F8
20
22
42
FC
ENDCHAR

STARTCHAR currency
ENCODING 164
SWIDTH 560 0
DWIDTH 7 0
BBX 6 7 0 1
BITMAP
84
78
84
84
84
78
84
ENDCHAR

STARTCHAR yen
ENCODING 165
SWIDTH 740 0
DWIDTH 10 0
BBX 9 9 0 0
BITMAP
E380
4100
2200
7700
1400
7F00
0800
0800
1C00
ENDCHAR

STARTCHAR brokenbar
ENCODING 166
SWIDTH 660 0
DWIDTH 7 0
BBX 1 9 3 0
BITMAP
80
80
80
00
00
80
80
80
80
ENDCHAR

STARTCHAR section
ENCODING 167
SWIDTH 440 0
DWIDTH 6 0
BBX 5 11 0 -2
BITMAP
70
88
80
70
88
88
88
70
08
88
70
ENDCHAR

STARTCHAR dieresis
ENCODING 168
SWIDTH 340 0
DWIDTH 5 0
BBX 3 1 1 8
BITMAP
A0
ENDCHAR

STARTCHAR copyright
ENCODING 169
SWIDTH 820 0
DWIDTH 11 0
BBX 9 9 1 0
BITMAP
3E00
4100
9C80
A280
A080
A280
9C80
4100
3E00
ENDCHAR

STARTCHAR ordfeminine
ENCODING 170
SWIDTH 420 0
DWIDTH 6 0
BBX 5 6 0 3
BITMAP
68
90
90
68
00
F8
ENDCHAR

STARTCHAR guillemotleft
ENCODING 171
SWIDTH 320 0
DWIDTH 5 0
BBX 4 3 0 2
BITMAP
50
A0
50
ENDCHAR

STARTCHAR logicalnot
ENCODING 172
SWIDTH 660 0
DWIDTH 7 0
BBX 6 4 0 2
BITMAP
FC
04
04
04
ENDCHAR

STARTCHAR hyphen
ENCODING 173
SWIDTH 300 0
DWIDTH 4 0
BBX 3 1 0 3
BITMAP
E0
ENDCHAR

STARTCHAR registered
ENCODING 174
SWIDTH 820 0
DWIDTH 11 0
BBX 9 9 1 0
BITMAP
3E00
4100
BC80
A480
B880
A480
A480
4100
3E00
ENDCHAR

STARTCHAR macron
ENCODING 175
SWIDTH 460 0
DWIDTH 6 0
BBX 4 1 1 8
BITMAP
F0
ENDCHAR

STARTCHAR degree
ENCODING 176
SWIDTH 400 0
DWIDTH 5 0
BBX 4 4 0 5
BITMAP
60
90
90
60
ENDCHAR

STARTCHAR plusminus
ENCODING 177
SWIDTH 660 0
DWIDTH 8 0
BBX 7 7 0 1
BITMAP
10
10
FE
10
10
00
FE
ENDCHAR

STARTCHAR twosuperior
ENCODING 178
SWIDTH 348 0
DWIDTH 4 0
BBX 4 5 0 4
BITMAP
60
90
20
40
F0
ENDCHAR

STARTCHAR threesuperior
ENCODING 179
SWIDTH 348 0
DWIDTH 4 0
BBX 4 5 0 4
BITMAP
60
90
20
90
60
ENDCHAR

STARTCHAR acute
ENCODING 180
SWIDTH 420 0
DWIDTH 4 0
BBX 2 2 1 8
BITMAP
40
80
ENDCHAR

STARTCHAR mu
ENCODING 181
SWIDTH 640 0
DWIDTH 8 0
BBX 8 10 0 -3
BITMAP
C6
42
42
42
42
46
7B
40
40
40
ENDCHAR

STARTCHAR paragraph
ENCODING 182
SWIDTH 500 0
DWIDTH 7 0
BBX 6 11 0 -2
BITMAP
7C
E8
E8
E8
68
28
28
28
28
28
28
ENDCHAR

STARTCHAR periodcentered
ENCODING 183
SWIDTH 300 0
DWIDTH 3 0
BBX 1 2 1 3
BITMAP
80
80
ENDCHAR

STARTCHAR cedilla
ENCODING 184
SWIDTH 320 0
DWIDTH 4 0
BBX 3 3 0 -3
BITMAP
40
20
C0
ENDCHAR

STARTCHAR onesuperior
ENCODING 185
SWIDTH 348 0
DWIDTH 4 0
BBX 3 5 0 4
BITMAP
C0
40
40
40
E0
ENDCHAR

STARTCHAR ordmasculine
ENCODING 186
SWIDTH 340 0
DWIDTH 5 0
BBX 4 6 0 3
BITMAP
60
90
90
60
00
F0
ENDCHAR

STARTCHAR guillemotright
ENCODING 187
SWIDTH 320 0
DWIDTH 5 0
BBX 4 3 0 2
BITMAP
A0
50
A0
ENDCHAR

STARTCHAR onequarter
ENCODING 188
SWIDTH 870 0
DWIDTH 10 0
BBX 9 9 0 0
BITMAP
C200
4200
4400
4400
E900
0B00
1500
1780
2100
ENDCHAR

STARTCHAR onehalf
ENCODING 189
SWIDTH 870 0
DWIDTH 10 0
BBX 9 9 0 0
BITMAP
C200
4200
4400
4400
EB00
0C80
1100
1200
2780
ENDCHAR

STARTCHAR threequarters
ENCODING 190
SWIDTH 870 0
DWIDTH 10 0
BBX 9 9 0 0
BITMAP
6200
9200
2400
9400
6900
0B00
1500
1780
2100
ENDCHAR

STARTCHAR questiondown
ENCODING 191
SWIDTH 520 0
DWIDTH 6 0
BBX 5 9 0 -3
BITMAP
20
00
20
20
40
80
88
88
70
ENDCHAR

STARTCHAR Agrave
ENCODING 192
SWIDTH 820 0
DWIDTH 10 0
BBX 9 12 0 0
BITMAP
1000
0800
0000
1800
0800
1400
1400
2200
3E00
4100
4100
E380
ENDCHAR

STARTCHAR Aacute
ENCODING 193
SWIDTH 820 0
DWIDTH 10 0
BBX 9 12 0 0
BITMAP
0400
0800
0000
1800
0800
1400
1400
2200
3E00
4100
4100
E380
ENDCHAR

STARTCHAR Acircumflex
ENCODING 194
SWIDTH 820 0
DWIDTH 10 0
BBX 9 12 0 0
BITMAP
0800
1400
0000
1800
0800
1400
1400
2200
3E00
4100
4100
E380
ENDCHAR

STARTCHAR Atilde
ENCODING 195
SWIDTH 820 0
DWIDTH 10 0
BBX 9 12 0 0
BITMAP
1200
2C00
0000
1800
0800
1400
1400
2200
3E00
4100
4100
E380
ENDCHAR

STARTCHAR Adieresis
ENCODING 196
SWIDTH 820 0
DWIDTH 10 0
BBX 9 11 0 0
BITMAP
1400
0000
1800
0800
1400
1400
2200
3E00
4100
4100
E380
ENDCHAR

STARTCHAR Aring
ENCODING 197
SWIDTH 820 0
DWIDTH 10 0
BBX 9 12 0 0
BITMAP
0800
1400
0800
1800
0800
1400
1400
2200
3E00
4100
4100
E380
ENDCHAR

STARTCHAR AE
ENCODING 198
SWIDTH 1000 0
DWIDTH 12 0
BBX 11 9 0 0
BITMAP
0FE0
0620
0A00
0A00
13C0
3E00
2200
4220
E7E0
ENDCHAR

STARTCHAR Ccedilla
ENCODING 199
SWIDTH 740 0
DWIDTH 8 0
BBX 7 12 0 -3
BITMAP
3A
46
82
80
80
80
82
44
38
10
08
30
ENDCHAR

STARTCHAR Egrave
ENCODING 200
SWIDTH 560 0
DWIDTH 7 0
BBX 6 12 0 0
BITMAP
20
10
00
FC
44
40
40
78
40
40
44
FC
ENDCHAR

STARTCHAR Eacute
ENCODING 201
SWIDTH 560 0
DWIDTH 7 0
BBX 6 12 0 0
BITMAP
08
10
00
FC
44
40
40
78
40
40
44
FC
ENDCHAR

STARTCHAR Ecircumflex
ENCODING 202
SWIDTH 560 0
DWIDTH 7 0
BBX 6 12 0 0
BITMAP
10
28
00
FC
44
40
40
78
40
40
44
FC
ENDCHAR

STARTCHAR Edieresis
ENCODING 203
SWIDTH 560 0
DWIDTH 7 0
BBX 6 11 0 0
BITMAP
28
00
FC
44
40
40
78
40
40
44
FC
ENDCHAR

STARTCHAR Igrave
ENCODING 204
SWIDTH 300 0
DWIDTH 4 0
BBX 3 12 0 0
BITMAP
80
40
00
E0
40
40
40
40
40
40
40
E0
ENDCHAR

STARTCHAR Iacute
ENCODING 205
SWIDTH 300 0
DWIDTH 4 0
BBX 3 12 0 0
BITMAP
20
40
00
E0
40
40
40
40
40
40
40
E0
ENDCHAR

STARTCHAR Icircumflex
ENCODING 206
SWIDTH 300 0
DWIDTH 4 0
BBX 3 12 0 0
BITMAP
40
A0
00
E0
40
40
40
40
40
40
40
E0
ENDCHAR

STARTCHAR Idieresis
ENCODING 207
SWIDTH 300 0
DWIDTH 4 0
BBX 3 11 0 0
BITMAP
A0
00
E0
40
40
40
40
40
40
40
E0
ENDCHAR

STARTCHAR Eth
ENCODING 208
SWIDTH 720 0
DWIDTH 9 0
BBX 8 9 0 0
BITMAP
FC
42
41
41
F1
41
41
42
FC
ENDCHAR

STARTCHAR Ntilde
ENCODING 209
SWIDTH 800 0
DWIDTH 10 0
BBX 9 12 0 0
BITMAP
1200
2C00
0000
E380
6100
5100
5100
4900
4900
4500
4500
E300
ENDCHAR

STARTCHAR Ograve
ENCODING 210
SWIDTH 800 0
DWIDTH 9 0
BBX 8 12 0 0
BITMAP
10
08
00
3C
42
81
81
81
81
81
42
3C
ENDCHAR

STARTCHAR Oacute
ENCODING 211
SWIDTH 800 0
DWIDTH 9 0
BBX 8 12 0 0
BITMAP
04
08
00
3C
42
81
81
81
81
81
42
3C
ENDCHAR

STARTCHAR Ocircumflex
ENCODING 212
SWIDTH 800 0
DWIDTH 9 0
BBX 8 12 0 0
BITMAP
08
14
00
3C
42
81
81
81
81
81
42
3C
ENDCHAR

STARTCHAR Otilde
ENCODING 213
SWIDTH 800 0
DWIDTH 9 0
BBX 8 12 0 0
BITMAP
12
2C
00
3C
42
81
81
81
81
81
42
3C
ENDCHAR

STARTCHAR Odieresis
ENCODING 214
SWIDTH 800 0
DWIDTH 9 0
BBX 8 11 0 0
BITMAP
14
00
3C
42
81
81
81
81
81
42
3C
ENDCHAR

STARTCHAR multiply
ENCODING 215
SWIDTH 660 0
DWIDTH 8 0
BBX 7 7 0 1
BITMAP
82
44
28
10
28
44
82
ENDCHAR

STARTCHAR Oslash
ENCODING 216
SWIDTH 800 0
DWIDTH 9 0
BBX 9 9 0 0
BITMAP
3C80
4300
8300
8500
8900
9100
A100
4200
BC00
ENDCHAR

STARTCHAR Ugrave
ENCODING 217
SWIDTH 700 0
DWIDTH 9 0
BBX 8 12 0 0
BITMAP
10
08
00
E7
42
42
42
42
42
42
42
3C
ENDCHAR

STARTCHAR Uacute
ENCODING 218
SWIDTH 700 0
DWIDTH 9 0
BBX 8 12 0 0
BITMAP
04
08
00
E7
42
42
42
42
42
42
42
3C
ENDCHAR

STARTCHAR Ucircumflex
ENCODING 219
SWIDTH 700 0
DWIDTH 9 0
BBX 8 12 0 0
BITMAP
08
14
00
E7
42
42
42
42
42
42
42
3C
ENDCHAR

STARTCHAR Udieresis
ENCODING 220
SWIDTH 700 0
DWIDTH 9 0
BBX 8 11 0 0
BITMAP
24
00
E7
42
42
42
42
42
42
42
3C
ENDCHAR

STARTCHAR Yacute
ENCODING 221
SWIDTH 680 0
DWIDTH 8 0
BBX 9 12 -1 0
BITMAP
0400
0800
0000
E380
4100
2200
2200
1400
0800
0800
0800
1C00
ENDCHAR

STARTCHAR Thorn
ENCODING 222
SWIDTH 580 0
DWIDTH 7 0
BBX 7 9 0 0
BITMAP
C0
7C
42
42
42
44
78
40
E0
ENDCHAR

STARTCHAR germandbls
ENCODING 223
SWIDTH 580 0
DWIDTH 8 0
BBX 7 9 0 0
BITMAP
38
44
44
48
5C
42
42
52
CC
ENDCHAR

STARTCHAR agrave
ENCODING 224
SWIDTH 660 0
DWIDTH 8 0
BBX 8 10 0 0
BITMAP
10
08
00
3B
46
82
82
82
46
3B
ENDCHAR

STARTCHAR aacute
ENCODING 225
SWIDTH 660 0
DWIDTH 8 0
BBX 8 10 0 0
BITMAP
08
10
00
3B
46
82
82
82
46
3B
ENDCHAR

STARTCHAR acircumflex
ENCODING 226
SWIDTH 660 0
DWIDTH 8 0
BBX 8 10 0 0
BITMAP
10
28
00
3B
46
82
82
82
46
3B
ENDCHAR

STARTCHAR atilde
ENCODING 227
SWIDTH 660 0
DWIDTH 8 0
BBX 8 10 0 0
BITMAP
24
58
00
3B
46
82
82
82
46
3B
ENDCHAR

STARTCHAR adieresis
ENCODING 228
SWIDTH 660 0
DWIDTH 8 0
BBX 8 9 0 0
BITMAP
28
00
3B
46
82
82
82
46
3B
ENDCHAR

STARTCHAR aring
ENCODING 229
SWIDTH 660 0
DWIDTH 8 0
BBX 8 10 0 0
BITMAP
10
28
10
3B
46
82
82
82
46
3B
ENDCHAR

STARTCHAR ae
ENCODING 230
SWIDTH 1060 0
DWIDTH 14 0
BBX 13 7 0 0
BITMAP
3AE0
4710
8208
83F8
8200
4708
3AF0
ENDCHAR

STARTCHAR ccedilla
ENCODING 231
SWIDTH 560 0
DWIDTH 7 0
BBX 6 10 0 -3
BITMAP
34
4C
84
80
80
44
38
20
10
60
ENDCHAR

STARTCHAR egrave
ENCODING 232
SWIDTH 580 0
DWIDTH 7 0
BBX 7 10 0 0
BITMAP
20
10
00
38
44
82
FE
80
42
3C
ENDCHAR

STARTCHAR eacute
ENCODING 233
SWIDTH 580 0
DWIDTH 7 0
BBX 7 10 0 0
BITMAP
10
20
00
38
44
82
FE
80
42
3C
ENDCHAR

STARTCHAR ecircumflex
ENCODING 234
SWIDTH 580 0
DWIDTH 7 0
BBX 7 10 0 0
BITMAP
10
28
00
38
44
82
FE
80
42
3C
ENDCHAR

STARTCHAR edieresis
ENCODING 235
SWIDTH 580 0
DWIDTH 7 0
BBX 7 9 0 0
BITMAP
28
00
38
44
82
FE
80
42
3C
ENDCHAR

STARTCHAR igrave
ENCODING 236
SWIDTH 260 0
DWIDTH 3 0
BBX 3 10 0 0
BITMAP
80
40
00
C0
40
40
40
40
40
E0
ENDCHAR

STARTCHAR iacute
ENCODING 237
SWIDTH 260 0
DWIDTH 3 0
BBX 3 10 0 0
BITMAP
40
80
00
C0
40
40
40
40
40
E0
ENDCHAR

STARTCHAR icircumflex
ENCODING 238
SWIDTH 260 0
DWIDTH 3 0
BBX 3 10 0 0
BITMAP
40
A0
00
C0
40
40
40
40
40
E0
ENDCHAR

STARTCHAR idieresis
ENCODING 239
SWIDTH 260 0
DWIDTH 3 0
BBX 3 9 0 0
BITMAP
A0
00
C0
40
40
40
40
40
E0
ENDCHAR

STARTCHAR eth
ENCODING 240
SWIDTH 580 0
DWIDTH 7 0
BBX 7 10 0 0
BITMAP
C4
38
C8
3C
46
82
82
82
44
38
ENDCHAR

STARTCHAR ntilde
ENCODING 241
SWIDTH 660 0
DWIDTH 8 0
BBX 8 10 0 0
BITMAP
24
58
00
DC
62
42
42
42
42
E7
ENDCHAR

STARTCHAR ograve
ENCODING 242
SWIDTH 580 0
DWIDTH 7 0
BBX 7 10 0 0
BITMAP
20
10
00
38
44
82
82
82
44
38
ENDCHAR

STARTCHAR oacute
ENCODING 243
SWIDTH 580 0
DWIDTH 7 0
BBX 7 10 0 0
BITMAP
10
20
00
38
44
82
82
82
44
38
ENDCHAR

STARTCHAR ocircumflex
ENCODING 244
SWIDTH 580 0
DWIDTH 7 0
BBX 7 10 0 0
BITMAP
10
28
00
38
44
82
82
82
44
38
ENDCHAR

STARTCHAR otilde
ENCODING 245
SWIDTH 580 0
DWIDTH 7 0
BBX 7 10 0 0
BITMAP
24
58
00
38
44
82
82
82
44
38
ENDCHAR

STARTCHAR odieresis
ENCODING 246
SWIDTH 580 0
DWIDTH 7 0
BBX 7 9 0 0
BITMAP
28
00
38
44
82
82
82
44
38
ENDCHAR

STARTCHAR divide
ENCODING 247
SWIDTH 660 0
DWIDTH 8 0
BBX 7 7 0 1
BITMAP
10
10
00
FE
00
10
10
ENDCHAR

STARTCHAR oslash
ENCODING 248
SWIDTH 580 0
DWIDTH 8 0
BBX 7 7 0 0
BITMAP
3A
44
8A
92
A2
44
B8
ENDCHAR

STARTCHAR ugrave
ENCODING 249
SWIDTH 640 0
DWIDTH 8 0
BBX 8 10 0 0
BITMAP
10
08
00
C6
42
42
42
42
46
3B
ENDCHAR

STARTCHAR uacute
ENCODING 250
SWIDTH 640 0
DWIDTH 8 0
BBX 8 10 0 0
BITMAP
08
10
00
C6
42
42
42
42
46
3B
ENDCHAR

STARTCHAR ucircumflex
ENCODING 251
SWIDTH 640 0
DWIDTH 8 0
BBX 8 10 0 0
BITMAP
10
28
00
C6
42
42
42
42
46
3B
ENDCHAR

STARTCHAR udieresis
ENCODING 252
SWIDTH 640 0
DWIDTH 8 0
BBX 8 9 0 0
BITMAP
28
00
C6
42
42
42
42
46
3B
ENDCHAR

STARTCHAR yacute
ENCODING 253
SWIDTH 640 0
DWIDTH 8 0
BBX 8 13 0 -3
BITMAP
08
10
00
E7
42
24
24
28
18
10
10
20
70
ENDCHAR

STARTCHAR thorn
ENCODING 254
SWIDTH 660 0
DWIDTH 8 0
BBX 8 12 0 -3
BITMAP
C0
40
5C
62
41
41
41
62
5C
40
40
E0
ENDCHAR

STARTCHAR ydieresis
ENCODING 255
SWIDTH 640 0
DWIDTH 8 0
BBX 8 12 0 -3
BITMAP
28
00
E7
42
24
24
28
18
10
10
20
70
ENDCHAR
ENDFONT
